{"title":"When The Game Stands Tall 2014 720p HDCAM FIRST ENG x264 Pimp40","uid":11147684,"size":2568178026,"categoryP":"video","categoryS":"movies","magnet":"?xt=urn:btih:782083700b371cc5179227c78cdb2e6d92de4ad2&amp;dn=+When+The+Game+Stands+Tall+2014+720p+HDCAM+FIRST+ENG+x264+Pimp40&amp;tr=udp%3A%2F%2Ftracker.openbittorrent.com%3A80&amp;tr=udp%3A%2F%2Fopen.demonii.com%3A1337&amp;tr=udp%3A%2F%2Ftracker.coppersurfer.tk%3A6969&amp;tr=udp%3A%2F%2Fexodus.desync.com%3A6969","seeders":11,"leechers":0,"uploader":"shawnmurthy","files":-1,"time":1412281787,"description":"SOURCE IS SHOP3001...THANKS.....FOR THE FIRST VERSION THIS CAM IS VERY GOOD...VIDEO WAS SHAKY FOR LIKE THE FIRST 30 SECONDS AFTER THAT IT STRAIGHTENS OUT.....HAD TO ADJUST THE CONTRAST AND FIX THE FLICKERING THAT IT HAS HERE AND THERE AND ALSO BRIGHTENED A LITTLE BIT BUT ONLY THE DARK SCENES.....AUDIO WAS A LITTLE HOLLOW FIXED AND SYNCED IT UP WELL............ENJOY.....PIMP4003\n &lt;a href=&quot;\nhttp://i.imgur.com/fW5GLTr.jpg&quot; rel=&quot;nofollow&quot; target=&quot;_NEW&quot;&gt;\nhttp://i.imgur.com/fW5GLTr.jpg&lt;/a&gt;\n &lt;a href=&quot;\nhttp://i.imgur.com/i8AM0e5.jpg&quot; rel=&quot;nofollow&quot; target=&quot;_NEW&quot;&gt;\nhttp://i.imgur.com/i8AM0e5.jpg&lt;/a&gt;\n\nFOR REQUESTS, EXCLUSIVE MOVIES AND SUPER FAST SPEEDS AND FOR SCREENSHOTS AND SAMPLE....CLICK BELOW LINK\n\nWhen The Game Stands Tall 2014 720p HDCAM FIRST ENG x264 Pimp4003\n\nENJOY\n\nPIMP4003\n\nVideo\nID                                       : 1\nFormat                                   : MPEG-4 Visual\nFormat profile                           : Simple@L3\nFormat settings, BVOP                    : No\nFormat settings, QPel                    : No\nFormat settings, GMC                     : No warppoints\nFormat settings, Matrix                  : Default (H.263)\nCodec ID                                 : 20\nDuration                                 : 1h 49mn\nBit rate                                 : 2 994 Kbps\nWidth                                    : 1 280 pixels\nHeight                                   : 536 pixels\nDisplay aspect ratio                     : 2.40:1\nFrame rate mode                          : Variable\nFrame rate                               : 59.940 fps\nMinimum frame rate                       : 59.916 fps\nMaximum frame rate                       : 60.157 fps\nColor space                              : YUV\nChroma subsampling                       : 4:2:0\nBit depth                                : 8 bits\nScan type                                : Progressive\nCompression mode                         : Lossy\nBits/(Pixel*Frame)                       : 0.073\nStream size                              : 2.29 GiB (96%)\nWriting library                          : ZJMedia MPEG Encoder\n\nAudio\nID                                       : 2\nFormat                                   : AAC\nFormat/Info                              : Advanced Audio Codec\nFormat profile                           : LC\nCodec ID                                 : 40\nDuration                                 : 1h 49mn\nBit rate mode                            : Variable\nBit rate                                 : 128 Kbps\nChannel(s)                               : 2 channels\nChannel positions                        : Front: L R\nSampling rate                            : 48.0 KHz\nCompression mode                         : Lossy\nStream size                              : 100 MiB (4%)\n","torrent":{"xt":"urn:btih:782083700b371cc5179227c78cdb2e6d92de4ad2","amp;dn":"+When+The+Game+Stands+Tall+2014+720p+HDCAM+FIRST+ENG+x264+Pimp40","amp;tr":["udp%3A%2F%2Ftracker.openbittorrent.com%3A80","udp%3A%2F%2Fopen.demonii.com%3A1337","udp%3A%2F%2Ftracker.coppersurfer.tk%3A6969","udp%3A%2F%2Fexodus.desync.com%3A6969"],"infoHash":"782083700b371cc5179227c78cdb2e6d92de4ad2","infoHashBuffer":{"type":"Buffer","data":[120,32,131,112,11,55,28,197,23,146,39,199,140,219,46,109,146,222,74,210]},"announce":[],"urlList":[]}}